<?xml version="1.0" encoding="utf-8"?><svg xmlns="http://www.w3.org/2000/svg" viewBox="0 0 772 484"><path fill="#fe6600" d="M383.5 10.5c1-.09 1.83.25 2.5 1a4747.81 4747.81 0 0 1 64 114 65.57 65.57 0 0 1 3 19c2.4 5.79 5.06 11.45 8 17 .67 2 .67 4 0 6a24.1 24.1 0 0 0-4.5 6.5c2.7 3.15 3.04 6.31 1 9.5a80.5 80.5 0 0 0 4 7.5c-.55.93-1.21 1.76-2 2.5a12.37 12.37 0 0 1-4.5-5c-25.5-45.66-51.5-91-78-136-22.5 38.34-44.5 77-66 116a7.25 7.25 0 0 0-2.5-2c-2.4 2.87-5.4 4.04-9 3.5a20.43 20.43 0 0 1-1.5-5.5c-1.05-1.02-2.22-1.18-3.5-.5a11.45 11.45 0 0 1-9 4 40.6 40.6 0 0 0-8.5 13.5 4.39 4.39 0 0 1-3.5 1c.3-3.6 1.46-6.94 3.5-10a9816.47 9816.47 0 0 0 60.5-104 11355.1 11355.1 0 0 1-233.5 130c-1.26-.35-1.6-1.02-1-2a34.7 34.7 0 0 1 7.5-6.5c-.95-.72-1.12-1.55-.5-2.5a84.85 84.85 0 0 0 7.5-8c-2.79-3.81-3.29-7.81-1.5-12a54.73 54.73 0 0 1 12.5-9.5 4220.6 4220.6 0 0 1 165-94c29.9-18.11 59.9-35.94 90-53.5Z"/><path fill="#fe6600" d="M34.5 49.5h236c-.3 3.14-1.97 5.3-5 6.5-78.33.67-156.67.67-235 0-.95-.72-1.12-1.55-.5-2.5 1.4-1.57 2.9-2.9 4.5-4Z"/><path fill="#fe6600" d="M85.5 75.5c44.34-.17 88.67 0 133 .5 2.52 2.85 2.18 5.52-1 8-44.33.67-88.67.67-133 0-2.41-3-2.08-5.83 1-8.5Z"/><path fill="#fe6600" d="M129.5 99.5h36c.65 3.05-.35 5.21-3 6.5-12 .67-24 .67-36 0-1.02-1.05-1.18-2.22-.5-3.5a30.23 30.23 0 0 1 3.5-3Z"/><path d="M172.5 203.5a96.85 96.85 0 0 1 39 7c1.11 1.22 1.28 2.56.5 4a39.55 39.55 0 0 1-6 11c-15.72-7.2-31.56-7.7-47.5-1.5-6.57 5.82-7.74 12.66-3.5 20.5a25.55 25.55 0 0 0 6.5 5.5c11.59 4.86 23.25 9.53 35 14 20.9 10.68 26.73 26.85 17.5 48.5-8.28 9.54-18.78 14.71-31.5 15.5a101.2 101.2 0 0 1-52.5-7.5 37.23 37.23 0 0 1 5.5-15 76.69 76.69 0 0 0 48 6.5c12.83-3.82 17-11.99 12.5-24.5l-6.5-6.5a1668.32 1668.32 0 0 0-43-18c-12.09-8.02-16.59-19.18-13.5-33.5 2.53-9.2 8.03-16.03 16.5-20.5a82.57 82.57 0 0 1 23-5.5Z"/><path d="M35.5 205.5c15.5-.8 30.84.36 46 3.5 24.55 8.3 32.72 24.8 24.5 49.5a40.53 40.53 0 0 1-22.5 18 1102.08 1102.08 0 0 1 26.5 36 44.65 44.65 0 0 1 6.5 14c-7.03.33-14.03 0-21-1a268.92 268.92 0 0 0-33-45.5c-8.66-.5-17.33-.67-26-.5v47h-19c-.17-39.33 0-78.67.5-118a204.94 204.94 0 0 1 17.5-3Zm17 15c6.33.67 12.67 1.5 19 2.5 15 4.49 20.16 14.32 15.5 29.5A21.75 21.75 0 0 1 72.5 263a203.43 203.43 0 0 1-36 2.5v-44c5.53.32 10.86-.01 16-1Z"/><path d="M261.5 205.5c12.38-.34 24.7.16 37 1.5 31.7 5.59 42.88 23.76 33.5 54.5-8.57 12.05-20.4 18.55-35.5 19.5a283.86 283.86 0 0 1-34 1.5v44h-19c-.17-39.33 0-78.67.5-118a204.93 204.93 0 0 1 17.5-3Zm17 15a60.32 60.32 0 0 1 30 7.5c6.95 6.94 8.79 15.11 5.5 24.5-5.15 8.17-12.65 12.67-22.5 13.5a487.7 487.7 0 0 1-29 1.5v-46c5.53.32 10.86-.01 16-1Z"/><path d="M665.5 205.5c19.14-1.58 37.8.6 56 6.5 19.03 8.02 30.2 22.2 33.5 42.5 5.03 38.28-11.14 61.78-48.5 70.5a178.47 178.47 0 0 1-59-.5c-.33-38.67 0-77.34 1-116a275.4 275.4 0 0 1 17-3Zm17 15c17.45-.91 32.28 4.76 44.5 17 10.05 17.1 11.05 34.77 3 53-7.95 12.57-19.45 19.4-34.5 20.5-9.33.5-18.66.67-28 .5v-90c5.2.32 10.2-.01 15-1Z"/><path d="M389.5 206.5c6.26-.31 12.42.02 18.5 1a1171 1171 0 0 1 51.5 119c-7.03.33-14.03 0-21-1a404.93 404.93 0 0 1-11-30h-59a855.12 855.12 0 0 1-11 31h-20a1040.37 1040.37 0 0 1 52-120Zm8 21a592.42 592.42 0 0 1 24 53.5c-15.67.67-31.33.67-47 0a1263.21 1263.21 0 0 1 23-53.5Z"/><path d="M486.5 206.5c5.93-.3 11.76.03 17.5 1a1120.13 1120.13 0 0 1 42.5 79 1120.13 1120.13 0 0 1 42.5-79 52.7 52.7 0 0 1 17.5-.5c4.8 39.66 8.13 79.5 10 119.5h-19c-.91-30.06-2.74-60.06-5.5-90a915.27 915.27 0 0 0-37 72 36.63 36.63 0 0 1-17 0 915.27 915.27 0 0 0-37-72 1645.98 1645.98 0 0 0-5.5 90h-19a1455.5 1455.5 0 0 1 10-120Z"/><path fill="#6cf" d="M296.5 343.5c2.22.06 3.22 1.23 3 3.5a18.91 18.91 0 0 1-4 9.5 21.61 21.61 0 0 1 5 4 74.24 74.24 0 0 0-5 6.5l1 1-7 7A14196.71 14196.71 0 0 0 120 474.5a1074.45 1074.45 0 0 1-38.5-66l3-2a124.24 124.24 0 0 1-9-17 4.53 4.53 0 0 1 3.5-4c.92-1.53 1.42-3.2 1.5-5a64.93 64.93 0 0 0-5.5-16c-.13-5.41-.13-10.75 0-16 .72-.95 1.55-1.12 2.5-.5l47.5 81.5a1438.62 1438.62 0 0 1 49.5-81.5 4.93 4.93 0 0 1 3-.5 44.73 44.73 0 0 1 3.5 9c1.65 3.38 3.65 3.71 6 1a9.87 9.87 0 0 0 2 5 12.5 12.5 0 0 1 0 7 501.3 501.3 0 0 0-25.5 47.5c44.39-24.18 88.72-48.68 133-73.5Z"/><path d="M450.5 343.5h9a8.43 8.43 0 0 1-.5 4c-2.04-.14-4.2.2-6.5 1a6.04 6.04 0 0 0-2 5h9v4h-9v17h-5a313 313 0 0 1 .5-25 8.43 8.43 0 0 1 4.5-6Z"/><path d="M474.5 343.5h4c-.17 8.67 0 17.34.5 26 1.07.7 2.23 1.2 3.5 1.5a4.39 4.39 0 0 0-1 3.5c-3.2.54-5.7-.46-7.5-3-.8-9.41-.64-18.74.5-28Z"/><path d="M462.5 345.5h5v5c-4.92 1.08-6.59-.58-5-5Z"/><path d="M545.5 345.5h5v5c-4.92 1.08-6.59-.58-5-5Z"/><path d="M486.5 347.5h4v6h9v4h-9c-.27 4.1.23 8.1 1.5 12a5.98 5.98 0 0 0 6.5 0c.76 1.13 1.43 2.3 2 3.5a16.62 16.62 0 0 1-11 1 4.6 4.6 0 0 1-2.5-2.5c-.5-8-.67-16-.5-24Z"/><path d="M679.5 347.5h5v6h8v4h-8c-.17 4.01 0 8.01.5 12a6.63 6.63 0 0 0 7 0 5.9 5.9 0 0 1 1.5 5c-3.68.17-7.35 0-11-.5l-1.5-1.5a111.22 111.22 0 0 1-1.5-25Z"/><path d="m334.5 352.5 8 1v4c-3.74-1.43-7.07-.93-10 1.5a66.39 66.39 0 0 0 10 5.5c3.16 7.54.49 10.87-8 10l-6-.5c-1.43-1.88-1.1-3.38 1-4.5 2.92.9 5.92 1.24 9 1a4.93 4.93 0 0 0-.5-3 53.22 53.22 0 0 0-7.5-3.5c-3.3-2.33-3.8-5.17-1.5-8.5a17.4 17.4 0 0 1 5.5-3Z"/><path d="M356.5 352.5c11.6.95 15.44 6.95 11.5 18l-2.5 2.5a28.52 28.52 0 0 1-12 1.5v7h-5c-.17-9 0-18 .5-27 2.6-.62 5.1-1.29 7.5-2Zm-3 5c5.95-1.37 9.62.8 11 6.5-.9 6.21-4.23 8.04-10 5.5-1-3.94-1.32-7.94-1-12Z"/><path d="M379.5 352.5c3.89-.15 7.39.85 10.5 3a65.97 65.97 0 0 1 1.5 19c-5.01.17-10.01 0-15-.5-3.53-3.39-3.87-7.06-1-11 3.6-1.01 7.26-1.85 11-2.5l-1-2a25.88 25.88 0 0 0-10-1v-4c1.6.27 2.93-.07 4-1Zm0 13h7v5c-2.36.16-4.69 0-7-.5-1.23-1.49-1.23-2.99 0-4.5Z"/><path d="M405.5 352.5c4.92 2.25 9.75 2.25 14.5 0 3.69.12 6.35 1.79 8 5 .5 5.66.67 11.32.5 17h-5c.17-5.01 0-10.01-.5-15a8.9 8.9 0 0 0-7.5-2v17h-5c.17-5.01 0-10.01-.5-15a8.9 8.9 0 0 0-7.5-2v17h-5v-21c2.88.3 5.55-.03 8-1Z"/><path d="M511.5 352.5c8.32.32 11.99 4.66 11 13-5.01-.17-10.01 0-15 .5a13.92 13.92 0 0 0 3 4c3.26.78 6.43.62 9.5-.5 1.37 1.5 1.53 3 .5 4.5-12.98 3.33-18.81-1.5-17.5-14.5 1.87-3.72 4.7-6.05 8.5-7Zm1 4a7.86 7.86 0 0 1 5 4c-3 1.33-6 1.33-9 0a11.48 11.48 0 0 1 4-4Z"/><path d="M535.5 352.5c1.93.65 3.93.98 6 1v4h-8v17h-5c-.17-6.68 0-13.34.5-20a96.58 96.58 0 0 0 6.5-2Z"/><path d="M564.5 352.5c3.4.3 6.57 1.3 9.5 3a65.97 65.97 0 0 1 1.5 19h-5c.17-5.01 0-10.01-.5-15a8.9 8.9 0 0 0-7.5-2v17h-5v-21c2.56.3 4.9-.03 7-1Z"/><path d="M591.5 352.5c2.93.8 5.93 1.13 9 1 .3 8.39-.03 16.72-1 25a12.4 12.4 0 0 1-4 2.5c-4 .67-8 .67-12 0a6.48 6.48 0 0 1-1-4.5c3.63.91 7.3 1.08 11 .5a7.25 7.25 0 0 0 2-2.5c-12.82.04-16.98-5.96-12.5-18a18.02 18.02 0 0 1 8.5-4Zm-2 5h7c.32 3.73-.01 7.4-1 11-7.13 2.04-9.97-.63-8.5-8 .7-1.2 1.53-2.2 2.5-3Z"/><path d="m623.5 352.5 8 1v4c-3.74-1.43-7.07-.93-10 1.5a53.67 53.67 0 0 0 10.5 5.5c2.36 4.05 1.53 7.21-2.5 9.5-4 .67-8 .67-12 0-1.43-1.88-1.1-3.38 1-4.5 12.94 1.2 13.28-.63 1-5.5-4.23-5.72-2.9-9.56 4-11.5Z"/><path d="M664.5 352.5c3.02.2 6.02.54 9 1v4c-3.74-1.43-7.07-.93-10 1.5 3.55 2.03 7.05 4.2 10.5 6.5a12.5 12.5 0 0 1 0 7 9.45 9.45 0 0 1-2.5 1.5c-4.32.5-8.65.67-13 .5a7.11 7.11 0 0 1 1-5c3.26.92 6.6 1.25 10 1a4.39 4.39 0 0 0-1-3.5 19.48 19.48 0 0 1-9.5-5.5c-.85-4.65.99-7.65 5.5-9Z"/><path d="M704.5 352.5c8.77-.14 12.77 4.2 12 13-5.04-.33-10.04 0-15 1a5.27 5.27 0 0 0 3 3.5c3.06.74 6.06.57 9-.5a7.11 7.11 0 0 1 1 5c-14.26 3.23-20.1-2.1-17.5-16 1.7-3.09 4.2-5.09 7.5-6Zm-1 5c2.03-.16 4.03 0 6 .5a4.39 4.39 0 0 1 1 3.5c-3.07.32-6.07-.02-9-1 .7-1.02 1.36-2.02 2-3Z"/><path d="M729.5 352.5c4.92 2.25 9.75 2.25 14.5 0 3.69.12 6.35 1.79 8 5 .5 5.66.67 11.32.5 17h-5c.17-5.01 0-10.01-.5-15a8.9 8.9 0 0 0-7.5-2v17h-5c.17-5.01 0-10.01-.5-15a8.9 8.9 0 0 0-7.5-2v17h-5v-21c2.88.3 5.55-.03 8-1Z"/><path d="M462.5 353.5h5v21h-5v-21Z"/><path d="M545.5 353.5h5v21h-5v-21Z"/><path d="M635.5 353.5a7.11 7.11 0 0 1 5 1c1.74 4.37 3.57 8.7 5.5 13 2.4-4.35 3.9-9.02 4.5-14h5c-1.6 7.94-4.1 15.61-7.5 23-3.33 4.56-7.83 6.22-13.5 5a4.39 4.39 0 0 1 1-3.5l6-1a4.66 4.66 0 0 0 2-3 77.07 77.07 0 0 1-8-20.5Z"/></svg>