<?xml version="1.0" encoding="utf-8"?><svg xmlns="http://www.w3.org/2000/svg" viewBox="0 0 256 256"><path d="M-.5 60.5v-6C11.6 42.9 23.6 31 35.5 19c9.3-.5 18.7-.7 28-.5.1 1 0 2-.5 3L38.5 46l78 1c1 7 1.3 14.2 1 21.5-26.7-.2-53.3 0-80 .5a1083 1083 0 0 1 26 26.5c-.2.6-.5 1-1 1.5-8.7.7-17.3.7-26 0a1904.8 1904.8 0 0 0-37-36.5Z"/><path d="M255.5 55.5v4a1801.4 1801.4 0 0 0-36 35.5c-9 .7-18 .7-27 0l27-27c-27.3-.5-54.7-.7-82-.5v-20c27.3.2 54.7 0 82-.5a1049 1049 0 0 1-27-27.5 113 113 0 0 1 26-.5c12.2 12.4 24.5 24.5 37 36.5Z"/><path d="M-.5 64.5a164 164 0 0 1 10.5 10c.5 46.3.7 92.7.5 139h234c-.2-46.7 0-93.3.5-140 3.1-3.6 6.6-6.6 10.5-9v157c-1.1.6-2.1 1.5-3 2.5-83.3.7-166.7.7-250 0-.9-1-1.9-1.9-3-2.5v-157Z"/><path d="M42.5 100.5a89.2 89.2 0 0 1 23-.5l8 8c36 .7 72 .7 108 0l8-8c7.7-.7 15.3-.7 23 0l-25 25c-40 .7-80 .7-120 0a862.5 862.5 0 0 0-25-24.5Z"/><path d="M35.5 150.5h9v8h-9v-8Zm23 0h9v8h-9v-8Zm15 0h9v8h-9v-8Zm23 0h9v8h-9v-8Zm38 0h9v8h-9v-8Zm15 0h9v8h-9v-8Zm23 0h9v8h-9v-8Zm15 0h9v8h-9v-8Zm23 0h9v8h-9v-8Zm15 0h9v8h-9v-8Zm-205 14h9v8h-9v-8Zm53 0h9v8h-9v-8Zm61 0h9v8h-9v-8Zm38 0h9v8h-9v-8Zm53 0h9v8h-9v-8Zm-205 15h9v8h-9v-8Zm38 0h9v8h-9v-8Zm76 0h9v8h-9v-8Zm38 0h9v8h-9v-8Zm38 0h9v8h-9v-8Zm15 0h9v8h-9v-8Z"/></svg>